<?xml version="1.0" standalone="no"?>
<!DOCTYPE svg PUBLIC "-//W3C//DTD SVG 20010904//EN"
 "http://www.w3.org/TR/2001/REC-SVG-20010904/DTD/svg10.dtd">
<svg version="1.0" xmlns="http://www.w3.org/2000/svg"
 width="209.000000pt" height="209.000000pt" viewBox="0 0 209.000000 209.000000"
 preserveAspectRatio="xMidYMid meet">
<metadata>
Created by potrace 1.11, written by Peter Selinger 2001-2013
</metadata>
<g transform="translate(0.000000,209.000000) scale(0.100000,-0.100000)"
fill="#000000" stroke="none">
<path d="M0 1045 l0 -1045 1045 0 1045 0 0 1045 0 1045 -1045 0 -1045 0 0
-1045z m1910 0 l0 -865 -865 0 -865 0 0 865 0 865 865 0 865 0 0 -865z"/>
<path d="M548 1782 c-9 -2 -18 -13 -21 -25 -3 -12 -3 -341 -1 -731 3 -519 7
-713 16 -723 9 -12 59 -13 292 -9 155 2 295 7 311 10 123 27 202 57 276 107
195 131 288 340 287 643 -2 412 -198 656 -580 723 -36 6 -552 11 -580 5z m537
-334 c81 -21 148 -74 183 -146 63 -124 64 -391 3 -511 -58 -113 -145 -164
-298 -174 l-63 -5 0 428 0 428 68 -5 c37 -2 85 -9 107 -15z"/>
</g>
</svg>
